<svg version="1.2" xmlns="http://www.w3.org/2000/svg" viewBox="0 0 100 100" width="500" height="500">
	<style>
		.s0 { fill: #097b32 } 
		.s1 { fill: #097a32 } 
		.s2 { fill: #004a04 } 
	</style>
	<path class="s0" d="m70.42 56.91c0-0.19 0-0.39 0.06-0.79 0.09-0.44 0.16-0.68 0.16-0.92q-0.01-13.5-0.07-27.01c-0.01-0.43-0.3-0.87-0.46-1.3 0-0.11 0-0.22 0.06-0.52 0.09-3.61 0.14-7.03 0.15-10.45 0-1-0.12-2-0.19-3.01 0.23-1.04 0.26-2.17 0.72-3.1 1.14-2.25 2.92-3.76 5.36-4.69 2.97-1.14 5.99-1.16 9.05-1.1 2.87 0.06 5.31 2.38 5.01 5.22-0.38 3.75-1.01 7.48-1.81 11.16-1.78 8.21-3.82 16.36-5.59 24.57-1.24 5.73-2.26 11.5-3.25 17.27-0.73 4.2-5.21 5.63-7.76 3.8-0.02-0.12-0.03-0.22-0.03-0.22l-0.11-0.02c0 0 0-0.01-0.02-0.11-0.27-0.55-0.52-0.99-0.77-1.57-0.01-1.97 0-3.79-0.07-5.62-0.02-0.54-0.29-1.06-0.44-1.59z"/>
	<path class="s1" d="m82.82 80.91c1.91 6.95-3.08 14.39-10.69 14.41-3.8 0.01-7.17-2.54-7.87-6.57-0.48-2.8-0.33-5.55 0.74-8.05 1.04-2.42 2.96-4.3 5.43-5.49 3.56-1.71 6.92-1.27 9.77 1.28 1.19 1.07 1.74 2.85 2.62 4.42z"/>
	<g id="Layer 1">
		<path class="s0" d="m17.77 80.41c12.57 0.06 23.42-8.09 26.5-15.21-1.87 0.43-3.76 1.13-5.69 1.23-2.28 0.13-4.7 0.09-6.87-0.52-2.3-0.65-4.58-1.79-6.51-3.2-3.03-2.21-4.8-5.34-4.96-9.22-0.05-1-0.36-2-0.32-2.98 0.2-4.43 1.11-8.72 3.09-12.7 1.22-2.46 2.51-4.94 4.18-7.1 3.42-4.43 7.63-7.88 13.39-8.84 3.83-0.64 7.59-0.54 11.1 1.43 2.3 1.29 3.95 3.18 5.28 5.43 1.78 2.98 2.96 6.15 3.52 9.57 0.71 4.25 1.31 8.49 0.71 12.8-0.47 3.32-0.74 6.7-1.54 9.94-1.6 6.56-4.45 12.61-8.46 18.07-2.95 4.03-6.61 7.37-10.8 9.99-4.71 2.95-9.86 4.92-15.46 5.6-3.19 0.38-6.37 0.5-9.54-0.03-3.08-0.51-4.78-2.73-5.76-5.45-0.77-2.1-0.84-4.35-0.2-6.53 0.14-0.44 0.69-0.77 1.19-1.19 0.27-0.14 0.39-0.22 0.52-0.31 0 0-0.01-0.01 0.1-0.01 2.36-0.13 4.6-0.27 6.84-0.41q-0.15-0.17-0.31-0.36zm29.09-39.42q-0.2-0.47-0.37-0.96c-0.81-2.62-3.7-4.29-6.04-3.32-3.25 1.34-5.57 3.66-6.67 7.07q-0.34 1.08-0.6 2.19c-0.53 2.33 0.09 4.35 1.53 6.25 1.29 1.68 3.07 2.18 4.95 2.13 1.56-0.03 3.18-0.12 4.65-1.02 2.72-1.66 3.4-4.35 3.54-7.13 0.09-1.68-0.58-3.39-0.87-5.09 0 0-0.03 0.01-0.12-0.12z"/>
		<path class="s2" d="m17.65 80.4c0.23 0.13 0.33 0.26 0.43 0.37-2.24 0.14-4.48 0.28-6.83 0.42 0.31-0.17 0.73-0.47 1.17-0.51 1.7-0.14 3.41-0.2 5.23-0.28z"/>
		<path id="Layer copy" class="s0" d="m39.04 13.4c2.3 0.77 4.78-0.07 5.77-1.19-0.37-0.04-0.76-0.02-1.12-0.12-0.42-0.11-0.86-0.26-1.23-0.51-0.38-0.25-0.73-0.6-1-0.98-0.42-0.58-0.56-1.26-0.35-1.98 0.05-0.19 0.05-0.39 0.12-0.57 0.3-0.8 0.73-1.53 1.33-2.14 0.37-0.38 0.76-0.76 1.19-1.05 0.9-0.61 1.88-0.99 2.99-0.82 0.74 0.11 1.42 0.36 1.95 0.93 0.34 0.38 0.53 0.82 0.64 1.31q0.22 0.98 0.07 1.97c-0.12 0.82-0.27 1.64-0.64 2.39-0.28 0.58-0.54 1.18-0.88 1.73q-1.04 1.66-2.64 2.81-1.18 0.84-2.58 1.18-1.56 0.4-3.17 0.09c-0.61-0.12-1.2-0.29-1.75-0.57-0.53-0.28-0.71-0.79-0.73-1.35q-0.01-0.66 0.36-1.21c0.05-0.07 0.17-0.1 0.29-0.15q0.08-0.01 0.11-0.02 0 0 0.02 0 0.66 0.18 1.28 0.34-0.01-0.04-0.03-0.09zm7.7-5.48q-0.01-0.09-0.01-0.19c0.01-0.53-0.42-1.01-0.91-0.98q-1.02 0.07-1.64 0.9-0.13 0.18-0.25 0.37c-0.23 0.39-0.24 0.8-0.09 1.23 0.13 0.39 0.43 0.59 0.78 0.69 0.29 0.09 0.59 0.17 0.91 0.09 0.6-0.14 0.89-0.59 1.08-1.09 0.12-0.3 0.1-0.66 0.15-0.99q0 0.01-0.02-0.03z"/>
	</g>
</svg>