<svg version="1.2" xmlns="http://www.w3.org/2000/svg" viewBox="0 0 100 100" width="500" height="500">
	<style>
		.s0 { fill: #097b32 } 
		.s1 { fill: #097a32 } 
		.s2 { fill: #09772f } 
		.s3 { fill: #09752e } 
		.s4 { fill: #09752d } 
		.s5 { fill: #097931 } 
		.s6 { fill: #08752c } 
		.s7 { fill: #077229 } 
		.s8 { fill: #0b7d35 } 
		.s9 { fill: #044f0b } 
		.s10 { fill: #004a04 } 
		.s11 { fill: #00610d } 
		.s12 { fill: #9eccb3 } 
		.s13 { fill: #75b390 } 
	</style>
	<g id="Layer 1">
		<path class="s0" d="m69.91 53.44q-0.01 0.02-0.07 0.06-0.17 0.16-0.3 0.29-0.04 0.05-0.13 0.12-0.05 0.04-0.05 0.07 0.01 0.01-0.02 0.02-0.08 0.05-0.13 0.1 0 0-0.02 0.01-0.1 0.07-0.16 0.14 0 0-0.03 0-0.63 0.39-1.23 0.77 0 0-0.05 0.01-0.06 0.03-0.08 0.05 0 0.01-0.06 0.01-0.15 0.04-0.25 0.08c-1.82 0.67-3.62 0.77-5.39-0.17q-0.1-0.04-0.21-0.05-0.01 0-0.03-0.02-0.04-0.05-0.07-0.07-0.01 0-0.01-0.03-0.05-0.06-0.09-0.09 0 0.01-0.01-0.02c-0.26-0.27-0.32-0.26-0.43 0.03q0 0-0.08 0.01-0.15 0.06-0.24 0.12c-0.99 0.6-2.03 0.9-3.17 0.41q0 0 0-0.02-0.03-0.05-0.06-0.05 0.01 0.01 0-0.02c-0.06-0.33-0.15-0.63-0.16-0.94 0-0.34 0.06-0.69 0.11-1.03q0.31-2.4 0.61-4.79 0.08-0.72 0.12-1.44-0.01-0.05 0.01-0.14c0.05-0.15 0.08-0.26 0.12-0.4 0.18-1.25 0.38-2.48 0.51-3.71 0.2-1.81 0.34-3.62 0.53-5.43 0.02-0.2 0.12-0.4 0.18-0.6q0 0 0.03 0 0.23-0.07 0.42-0.13c1.27-0.41 2.55-0.78 3.92-0.67q0 0 0.01 0.02 0.14 0.1 0.26 0.18 0-0.01 0.01 0.01 0.02 0.05 0.05 0.06 0-0.01 0 0.02c0.04 0.3 0.13 0.59 0.09 0.85-0.15 0.98-0.35 1.94-0.52 2.92q-0.11 0.71-0.19 1.43c-0.1 0.67-0.21 1.34-0.33 2.09 0.33-0.17 0.59-0.3 0.84-0.45q1.38-0.86 2.95-1.16c0.91-0.18 1.83-0.13 2.7 0.2 0.4 0.16 0.74 0.42 1.06 0.72 0.63 0.58 0.98 1.3 1.26 2.07 0.12 0.33 0.18 0.69 0.24 1.08-0.04 0.84-0.07 1.62-0.12 2.43q-0.19 0.73-0.37 1.43-0.11 0.42-0.23 0.84-0.01 0.04-0.06 0.12-0.08 0.18-0.13 0.33-0.02 0.06-0.08 0.17-0.51 0.82-0.98 1.6 0 0-0.02 0.01-0.08 0.12-0.13 0.23 0.01 0.01-0.02 0.03-0.1 0.06-0.17 0.12 0.01 0-0.01 0-0.05 0.03-0.06 0.06 0.01-0.01-0.01 0-0.04 0.07-0.07 0.11zm-5.16-8.04c-0.25 0.16-0.53 0.28-0.74 0.48-0.41 0.41-0.69 0.89-0.9 1.45-0.33 0.9-0.49 1.82-0.56 2.76-0.02 0.27-0.03 0.54-0.11 0.79-0.13 0.43 0.01 0.8 0.18 1.18 0.05 0.12 0.15 0.24 0.26 0.3 0.7 0.42 1.44 0.32 2.16 0.08 0.61-0.2 1.05-0.64 1.38-1.17 0.86-1.43 1.32-2.96 1.03-4.66q0 0.01-0.02-0.03-0.09-0.18-0.17-0.36c-0.19-0.48-0.58-0.77-1.02-0.91-0.47-0.15-0.98-0.12-1.46 0.07q0.01-0.01-0.03 0.02z"/>
		<path class="s0" d="m21.77 54.43c0.03 0.43-0.27 0.62-0.56 0.77-0.44 0.21-0.9 0.44-1.37 0.52-0.63 0.12-1.3 0.15-1.91-0.13-0.53-0.23-1.23-0.89-1.11-1.62 0.02-0.17 0-0.34 0-0.51q-0.04-0.03-0.08-0.05-0.3 0.34-0.59 0.67c-1.02 1.17-2.21 1.98-3.87 1.78-0.92-0.11-1.67-0.49-2.35-1.14-0.81-0.77-1.22-1.72-1.37-2.78-0.11-0.73-0.04-1.49-0.01-2.24 0.06-1.33 0.5-2.57 1.11-3.74 0.26-0.49 0.6-0.96 0.95-1.4q0.47-0.63 1.06-1.15c0.4-0.34 0.87-0.61 1.31-0.91 0.55-0.36 1.15-0.63 1.81-0.71 0.93-0.1 1.85-0.11 2.66 0.49q0.21 0.15 0.48 0.32 0.08-0.35 0.12-0.65 0.18-1.29 0.32-2.59c0.07-0.58 0.08-1.17 0.12-1.75 0.03-0.27 0-0.58 0.12-0.79 0.13-0.19 0.41-0.32 0.65-0.4 0.7-0.22 1.4-0.44 2.12-0.58 0.56-0.11 1.14-0.2 1.69 0.07q0.39 0.19 0.41 0.62c0.04 0.84-0.2 1.64-0.36 2.45q-0.25 1.31-0.48 2.62-0.26 1.44-0.5 2.89-0.18 1.16-0.33 2.34-0.17 1.15-0.31 2.31-0.1 1.18-0.18 2.37-0.04 0.37-0.05 0.74c-0.02 0.76 0.11 1.49 0.5 2.18zm-4.77-8.9q0-0.01-0.03-0.06-0.02-0.03-0.07-0.11-0.09-0.06-0.17-0.11 0.01 0.01-0.02-0.04c-0.19-0.14-0.38-0.29-0.69-0.17q-0.13 0.01-0.27-0.02c0 0 0-0.04 0.04-0.04q0.05 0 0.11-0.01-0.01-0.02-0.02-0.04-0.05 0.03-0.18 0.06-0.3 0.11-0.61 0.23 0 0-0.05 0.02-0.06 0.04-0.12 0.08 0.01 0-0.04 0.01c-0.15 0.13-0.32 0.24-0.43 0.39-1.04 1.42-1.46 3.05-1.48 4.78 0 0.33 0.17 0.65 0.27 0.98q0 0-0.01 0.05 0.04 0.04 0.07 0.09 0-0.01 0 0.03 0.01 0.03 0.04 0.05 0-0.01 0.01 0.04 0.06 0.08 0.12 0.15 0 0 0.01 0.04 0.04 0.04 0.06 0.09 0-0.02 0.03 0.02 0.05 0.02 0.1 0.05 0-0.01 0.02 0.03 0.06 0.04 0.13 0.08-0.01-0.01 0.02 0.04c0.39 0.23 0.79 0.26 1.19 0.02q-0.01 0.01 0.03 0 0.03-0.01 0.08-0.07c0.17-0.15 0.39-0.27 0.51-0.46 0.34-0.52 0.64-1.06 0.99-1.63q0.07-0.21 0.13-0.44 0 0 0.04-0.03 0.03-0.11 0.05-0.22 0 0.01 0.03-0.02 0.01-0.05 0.01-0.12 0 0.01 0.04-0.03 0.03-0.11 0.05-0.22 0 0.01 0.04-0.03c0.14-0.63 0.31-1.25 0.41-1.88 0.06-0.47 0.01-0.95-0.31-1.38q-0.03-0.04-0.05-0.12-0.04-0.02-0.07-0.05 0 0.01-0.01-0.03z"/>
		<path class="s0" d="m76.25 36.48q0.03 0 0.12-0.01c0.85-0.15 1.66-0.33 2.48-0.43 0.54-0.07 1.13-0.19 1.61 0.23 0.34 0.51 0.15 1.04 0.05 1.56q-0.5 2.59-1.03 5.19c-0.02 0.06-0.04 0.13-0.09 0.28 0.17-0.08 0.29-0.11 0.38-0.18 0.66-0.55 1.41-0.98 2.24-1.08 1.16-0.14 2.3-0.03 3.22 0.88 0.91 0.9 1.32 2.01 1.52 3.2 0.12 0.77 0.14 1.57 0.07 2.34-0.12 1.19-0.42 2.35-1.01 3.4-0.3 0.54-0.6 1.1-1.01 1.56-0.95 1.09-2.1 1.93-3.54 2.27-0.84 0.2-1.71 0.32-2.55 0.15-0.76-0.15-1.55-0.32-2.09-0.98-0.08-0.1-0.2-0.16-0.33-0.25-0.46 0.64-1.14 0.89-1.85 0.99-0.57 0.08-1.18 0.19-1.71-0.21-0.19-0.14-0.38-0.59-0.32-0.91q0.21-1.03 0.41-2.07 0.41-2.28 0.83-4.56 0.32-1.66 0.64-3.32 0.04-0.3 0.08-0.63 0.13-0.39 0.21-0.74c0.34-2.07 0.77-4.13 0.75-6.24q-0.01 0 0.02-0.01 0.47-0.21 0.9-0.43zm4.33 15.65q-0.01 0 0.04-0.01 0.05-0.04 0.15-0.12c0.29-0.38 0.62-0.73 0.86-1.14q0.37-0.67 0.6-1.42 0.22-0.71 0.28-1.45 0.06-0.61-0.07-1.2c-0.08-0.35-0.22-0.73-0.45-0.99-0.49-0.56-1.19-0.63-1.91-0.42q0.01-0.01-0.03 0.02-0.07 0.05-0.13 0.09c-0.95 0.44-1.45 1.26-1.75 2.19-0.22 0.68-0.35 1.39-0.49 2.1-0.09 0.48-0.17 0.97-0.16 1.45 0.01 0.43 0.06 0.89 0.5 1.22 0.66 0.4 1.32 0.37 2 0.03q-0.01 0 0.04-0.01 0.04-0.02 0.12-0.08 0.04-0.02 0.14-0.05 0.07-0.05 0.18-0.13 0 0 0.04-0.02 0.03-0.02 0.04-0.06z"/>
		<path class="s0" d="m53.46 42.59c0.86-0.6 1.77-0.65 2.72-0.38 0.48 0.13 0.77 0.63 0.68 1.13q-0.24 1.24-0.47 2.48-0.21 1.24-0.4 2.48c-0.13 0.87-0.3 1.74-0.38 2.62-0.1 0.95-0.26 1.93 0.16 2.86 0.17 0.39 0.2 0.73-0.07 1.07-0.35 0.44-0.82 0.69-1.34 0.84-0.52 0.15-1.04 0.22-1.6 0.05-0.73-0.22-1.45-1-1.37-1.87 0.02-0.12 0.01-0.24 0.01-0.43-0.15 0.11-0.28 0.16-0.34 0.25-0.47 0.67-1.09 1.15-1.79 1.57-0.68 0.4-1.42 0.56-2.21 0.59-0.8 0.03-1.54-0.19-2.24-0.56-0.56-0.3-0.95-0.79-1.3-1.31-0.38-0.59-0.67-1.22-0.72-1.94-0.02-0.47-0.14-0.93-0.14-1.39 0-0.95 0.17-1.88 0.44-2.79 0.32-1.06 0.76-2.05 1.42-2.94 0.48-0.67 1.01-1.28 1.7-1.77 0.68-0.47 1.36-0.91 2.15-1.16 0.96-0.32 1.96-0.38 2.92-0.03 0.63 0.23 1.2 0.6 1.57 1.2q0.04 0.09 0.07 0.17c0.2-0.29 0.36-0.51 0.53-0.74zm-1.54 5.6c0.02-0.21 0.08-0.42 0.07-0.63-0.02-0.57 0.02-1.16-0.33-1.65-0.2-0.27-0.41-0.61-0.7-0.72-0.55-0.21-1.14-0.15-1.68 0.18-0.4 0.23-0.59 0.63-0.85 0.97-0.48 0.65-0.67 1.4-0.79 2.17-0.06 0.37-0.01 0.76-0.13 1.09-0.23 0.67-0.1 1.32 0.11 1.92 0.38 1.14 1.72 1.09 2.38 0.34 0.37-0.41 0.69-0.87 1.01-1.32 0.5-0.68 0.66-1.48 0.87-2.29q0.01 0 0.04-0.06z"/>
		<path class="s0" d="m23.31 60.19c3.08 0.02 5.75-1.99 6.5-3.73-0.46 0.1-0.92 0.28-1.39 0.3-0.56 0.03-1.16 0.02-1.69-0.13-0.56-0.16-1.12-0.44-1.6-0.78-0.74-0.54-1.18-1.31-1.22-2.26-0.01-0.25-0.08-0.49-0.07-0.74 0.05-1.08 0.27-2.14 0.75-3.11 0.3-0.6 0.62-1.21 1.03-1.74 0.84-1.09 1.87-1.94 3.29-2.17 0.94-0.16 1.86-0.14 2.72 0.35 0.57 0.31 0.97 0.78 1.3 1.33q0.65 1.09 0.86 2.35c0.17 1.04 0.32 2.08 0.17 3.14-0.11 0.81-0.18 1.64-0.37 2.44q-0.6 2.42-2.08 4.43-1.1 1.49-2.65 2.45c-1.15 0.73-2.42 1.21-3.79 1.38-0.79 0.09-1.57 0.12-2.34-0.01-0.76-0.12-1.18-0.67-1.42-1.34q-0.28-0.78-0.05-1.6c0.04-0.11 0.17-0.19 0.3-0.29q0.09-0.05 0.12-0.08-0.01 0 0.03 0 0.86-0.05 1.68-0.1-0.04-0.04-0.08-0.09zm7.14-9.67q-0.05-0.12-0.09-0.24c-0.2-0.64-0.91-1.05-1.49-0.81-0.79 0.33-1.36 0.9-1.63 1.73q-0.09 0.27-0.15 0.54c-0.13 0.57 0.02 1.07 0.38 1.53 0.31 0.42 0.75 0.54 1.21 0.53 0.38-0.01 0.78-0.03 1.14-0.25 0.67-0.41 0.84-1.07 0.87-1.75 0.02-0.41-0.14-0.84-0.21-1.25q0 0.01-0.03-0.03z"/>
		<path class="s0" d="m36.9 42.55q0.15-1.27 0.28-2.51 0.1-0.93 0.19-1.86c0.04-0.42 0.04-0.84 0.07-1.25 0.01-0.09 0.1-0.2 0.18-0.23 0.58-0.23 1.16-0.46 1.76-0.64 0.78-0.24 1.58-0.35 2.39-0.28 0.33 0.03 0.53 0.17 0.68 0.48 0.21 0.46 0.05 0.89-0.02 1.31-0.19 1.21-0.43 2.41-0.64 3.62q-0.33 1.92-0.65 3.85c-0.14 0.82-0.31 1.64-0.41 2.47-0.13 1.05-0.19 2.1-0.34 3.15-0.07 0.48 0.01 0.93 0.09 1.38 0.09 0.48 0.49 0.75 0.93 0.87 0.33 0.1 0.35 0.32 0.31 0.55-0.13 0.63-0.38 1.2-0.85 1.65-0.81 0.8-2.22 1.02-3.29 0.47-1.11-0.58-1.65-1.53-1.8-2.72q-0.12-1.03-0.08-2.07c0.01-0.42 0.14-0.85 0.2-1.27q0.19-1.3 0.38-2.59 0.15-0.94 0.29-1.88 0.12-0.94 0.23-1.87 0.04-0.3 0.1-0.63z"/>
		<path class="s0" d="m88.23 47.06q0-0.06 0.02-0.18 0.03-0.14 0.03-0.2 0-3.02-0.01-6.04c0-0.09-0.07-0.19-0.11-0.29q0-0.02 0.02-0.11 0.03-1.2 0.03-2.34-0.01-0.33-0.04-0.67c0.05-0.23 0.06-0.49 0.16-0.69q0.38-0.75 1.2-1.05c0.66-0.25 1.33-0.26 2.02-0.24 0.64 0.01 1.18 0.53 1.12 1.16q-0.14 1.26-0.41 2.49c-0.4 1.84-0.85 3.66-1.25 5.49q-0.4 1.92-0.72 3.86c-0.16 0.94-1.17 1.26-1.73 0.85q-0.01-0.05-0.01-0.05l-0.03-0.01q0.01 0.01 0-0.02-0.09-0.17-0.17-0.35 0-0.65-0.02-1.26c0-0.12-0.06-0.23-0.1-0.35z"/>
		<path class="s1" d="m91 52.42c0.43 1.55-0.69 3.21-2.38 3.22-0.85 0-1.61-0.57-1.76-1.47-0.11-0.63-0.08-1.24 0.16-1.8 0.24-0.54 0.66-0.96 1.22-1.23 0.79-0.38 1.54-0.28 2.18 0.29 0.26 0.24 0.39 0.64 0.58 0.99z"/>
		<path class="s2" d="m39.72 58.61q0.09-0.01 0.23 0.02 0.24 0.06 0.41 0.09 0 0 0.02 0.02 0.13 0.07 0.24 0.12c0.68 0.3 0.88 1.48-0.08 2 0.18 0.19 0.44 0.35 0.55 0.57 0.51 1-0.12 1.89-1.22 1.91q-1.11 0.02-2.27-0.03-0.04-2.11-0.04-4.16c0-0.49 0-0.48 0.48-0.49q0.84-0.02 1.68-0.05zm0.22 3.99q0.11-0.04 0.26-0.14c0.4-0.61 0.29-0.98-0.4-1.13-0.43-0.1-0.88-0.07-1.32-0.07-0.06 0-0.18 0.12-0.18 0.18q0 0.58 0.09 1.22 0.64 0.02 1.28 0.02c0.06 0 0.12-0.06 0.21-0.1q0.01-0.01 0.06 0.02zm-1.6-2.36q-0.05 0.35 0.31 0.31 0.47-0.01 0.94 0c0.38 0.01 0.7-0.21 0.72-0.49q0.04-0.65-0.61-0.75-0.24-0.03-0.48-0.02c-0.89 0-0.89 0-0.88 0.95z"/>
		<path class="s3" d="m56.63 59.14q-0.08 0.23-0.2 0.41c-0.1 0.14-0.23 0.2-0.41 0.07q-0.58-0.41-1.28-0.32-0.23 0.03-0.42 0.15c-0.32 0.22-0.33 0.58 0.02 0.75 0.37 0.18 0.78 0.28 1.17 0.43 0.45 0.17 0.96 0.26 1.19 0.78 0.29 0.7 0.06 1.45-0.62 1.78-0.86 0.4-2.11 0.3-2.9-0.36q-0.06-0.07-0.11-0.15 0.01-0.05 0.02-0.07c0.13-0.17 0.23-0.42 0.39-0.48 0.12-0.04 0.32 0.19 0.49 0.28q0.75 0.39 1.56 0.16c0.23-0.06 0.42-0.22 0.39-0.45-0.03-0.18-0.17-0.41-0.32-0.5-0.26-0.16-0.58-0.22-0.87-0.32-0.46-0.15-0.95-0.21-1.29-0.62-0.44-0.53-0.28-1.46 0.31-1.81 0.93-0.56 1.84-0.36 2.74 0.07 0.06 0.03 0.09 0.12 0.14 0.2z"/>
		<path class="s4" d="m71.95 60.66q0.22 0.1 0.41 0.17 0.66 0.27 0.74 0.96c0.06 0.55-0.15 1.01-0.62 1.33-0.78 0.51-2.51 0.35-3.15-0.44q0-0.03 0.01-0.05c0.14-0.18 0.25-0.45 0.42-0.5 0.14-0.04 0.37 0.16 0.54 0.27q0.77 0.47 1.58 0.13c0.15-0.06 0.31-0.3 0.31-0.46 0-0.16-0.17-0.39-0.33-0.46-0.43-0.18-0.89-0.3-1.34-0.44q-1.11-0.34-1.04-1.31c0.04-0.68 0.76-1.31 1.44-1.32 0.58 0 1.16 0.01 1.68 0.32q0.18 0.12 0.36 0.25-0.04 0.09-0.08 0.16c-0.3 0.49-0.3 0.5-0.79 0.22-0.53-0.31-1.25-0.29-1.56 0.04-0.25 0.27-0.24 0.53 0.1 0.68 0.42 0.18 0.87 0.29 1.32 0.45z"/>
		<path class="s4" d="m48.72 60.56q0.11-0.31 0.23-0.6 0.34 0 0.79 0-0.22 0.59-0.43 1.12-0.57 1.4-1.14 2.81c-0.25 0.61-0.81 0.94-1.44 0.81-0.06-0.01-0.14-0.13-0.13-0.19q0.04-0.22 0.12-0.43 1.07-0.02 0.68-1.04-0.57-1.38-1.15-2.76c-0.04-0.1-0.03-0.22-0.06-0.38 0.23 0 0.43-0.03 0.61 0.01 0.1 0.02 0.21 0.13 0.25 0.23q0.41 1.03 0.81 2.06 0.03 0.07 0.14 0.2c0.25-0.64 0.48-1.23 0.72-1.84z"/>
		<path class="s3" d="m77.18 60.44q0.38 0.96 0.74 1.89 0.05 0 0.11 0 0.46-1.18 0.92-2.36c0.27 0 0.52 0 0.81 0q-0.24 0.6-0.47 1.16-0.52 1.31-1.07 2.62c-0.36 0.84-0.71 1.03-1.67 0.94q0.09-0.33 0.19-0.66 0.03 0.04 0.06 0.09c0.18-0.07 0.42-0.08 0.52-0.2 0.15-0.2 0.3-0.44 0.17-0.74q-0.62-1.45-1.23-2.9-0.04-0.13-0.05-0.28c0.78-0.11 0.78-0.11 0.97 0.44z"/>
		<path class="s4" d="m82.35 61c0.22-0.75 1.07-1.26 1.79-1.1 0.24 0.05 0.48 0.09 0.7 0.18 0.52 0.22 0.81 1.13 0.79 1.59 0 0.05-0.19 0.15-0.29 0.15q-0.94 0.01-1.88 0.01c-0.44 0-0.48 0.07-0.29 0.47 0.2 0.43 0.74 0.61 1.35 0.44q0.1-0.02 0.18-0.07c0.32-0.22 0.55-0.17 0.66 0.23-0.8 0.84-2.51 0.68-3.02-0.56-0.16-0.37-0.01-0.88 0.01-1.34zm1.33-0.51c-0.2 0.19-0.41 0.36-0.58 0.57-0.08 0.11-0.05 0.27 0.15 0.27q0.8 0 1.61 0c-0.08-0.62-0.4-0.85-1.18-0.84zm-0.32 0.9q-0.08 0.01-0.15 0.01 0 0.02 0 0.04 0.74 0 1.48 0 0-0.02 0-0.05-0.62 0-1.33 0z"/>
		<path class="s4" d="m59.56 59.91c0.92 0.1 1.35 1.01 1.34 1.72 0 0.07-0.19 0.18-0.29 0.19q-0.96 0.01-1.92 0.01c-0.38 0-0.44 0.09-0.28 0.44 0.16 0.36 0.65 0.63 1.03 0.54q0.39-0.08 0.73-0.24c0.28-0.14 0.3 0.1 0.41 0.22 0.13 0.16 0 0.21-0.12 0.29-0.95 0.65-2.55 0.4-2.93-0.98-0.2-0.71 0.09-1.79 1.11-2.12 0.29-0.1 0.58-0.26 0.92-0.07zm-0.28 0.57q-0.7 0.01-0.91 0.59c-0.02 0.07 0.05 0.24 0.09 0.24q0.83 0.02 1.67 0.01-0.07-0.8-0.85-0.84zm-0.07 0.91q-0.36 0-0.73 0 0 0.02 0 0.05 0.77 0 1.54 0 0-0.03 0-0.05c-0.25 0-0.5 0-0.81 0z"/>
		<path class="s5" d="m45.43 62.18q0 0.28-0.02 0.62-0.07 0.3-0.1 0.54-0.04 0-0.07 0c-0.46 0.01-0.46 0.01-0.63-0.36-1.17 0.58-1.6 0.57-2.15-0.1q-0.06-1.36-0.06-2.66c0-0.07 0.18-0.17 0.29-0.19 0.15-0.04 0.28 0.01 0.28 0.21q-0.01 0.63 0.01 1.27 0.02 0.36 0.06 0.73-0.01-0.01 0 0.01 0.03 0.11 0.06 0.19c0.5 0.41 1.04 0.38 1.5-0.1q0.05-0.02 0.08-0.03 0.04-0.92 0.05-1.82c0-0.5 0.1-0.56 0.59-0.4q-0.01 0.85 0.01 1.71c0 0.13 0.06 0.26 0.1 0.38z"/>
		<path class="s6" d="m74.94 62.56c0.11 0.05 0.23 0.12 0.35 0.13 0.31 0 0.37 0.22 0.4 0.45 0.01 0.05-0.04 0.15-0.09 0.18-0.26 0.17-1.02 0.07-1.26-0.14-0.22-0.2-0.24-0.47-0.25-0.73q-0.02-0.78 0-1.56c0-0.2-0.05-0.3-0.27-0.31-0.08 0-0.22-0.11-0.23-0.18-0.02-0.15-0.1-0.39 0.14-0.43 0.36-0.05 0.38-0.26 0.37-0.55-0.01-0.12 0.03-0.36 0.09-0.37q0.31-0.04 0.63 0.01c0.05 0.01 0.08 0.16 0.1 0.25q0.02 0.18 0 0.36c-0.02 0.27 0.12 0.34 0.36 0.29 0.15-0.04 0.33-0.13 0.36 0.15 0.04 0.39-0.01 0.47-0.32 0.48q-0.15 0.01-0.37 0.02c-0.07 0.01-0.08 0.01-0.1 0.04q0 0.86 0.01 1.72 0.01 0.04 0.01 0.07 0.03 0.07 0.07 0.12z"/>
		<path class="s6" d="m64.43 60.03q-0.01 1.5 0.01 2.95c0 0.28-0.08 0.38-0.37 0.37-0.28 0-0.39-0.06-0.38-0.36q0.01-1.95 0-3.89c0-0.49 0-0.49 0.48-0.48q0.1 0 0.26 0.02 0 0.67 0 1.39z"/>
		<path class="s7" d="m61.8 59.83q0.01-0.51 0-0.97c-0.01-0.28 0.19-0.25 0.36-0.24 0.17 0 0.39-0.06 0.39 0.24q-0.01 2.11 0 4.23c0 0.32-0.23 0.24-0.41 0.26-0.22 0.01-0.34-0.04-0.34-0.3q0.01-1.59 0-3.22z"/>
		<path class="s8" d="m81.18 63.33q-0.01 0.01-0.06-0.01-0.13-0.09-0.23-0.1c-0.23 0.01-0.3-0.1-0.29-0.32q0-2.11 0.04-4.23c0.24 0.03 0.55-0.14 0.55 0.3q-0.01 2.18-0.01 4.36z"/>
		<path class="s9" d="m59.55 36.73c-0.04 0.19-0.14 0.39-0.16 0.59-0.19 1.81-0.33 3.62-0.53 5.43-0.13 1.23-0.33 2.46-0.51 3.71q-0.02 0.03-0.03 0.01-0.03-0.05-0.05-0.07 0.1-0.63 0.19-1.27 0.16-1.04 0.29-2.09 0.12-1.01 0.23-2.02 0.14-1.13 0.25-2.26 0.06-0.86 0.08-1.71c0-0.16-0.02-0.32 0.24-0.32z"/>
		<path class="s7" d="m50.79 62.68q0.17 0.43-0.18 0.64c-0.12 0.06-0.31 0.07-0.44 0.03-0.23-0.07-0.37-0.27-0.27-0.51 0.07-0.17 0.19-0.36 0.35-0.43 0.21-0.1 0.41 0.03 0.54 0.27z"/>
		<path class="s7" d="m66.04 62.39c0.13 0.12 0.27 0.23 0.33 0.36 0.09 0.24-0.08 0.57-0.3 0.65-0.19 0.06-0.5-0.09-0.59-0.3-0.11-0.24-0.02-0.52 0.23-0.65q0.14-0.05 0.33-0.06z"/>
		<path class="s4" d="m87.01 62.39c0.37 0.12 0.4 0.61 0.26 0.82-0.12 0.2-0.48 0.28-0.66 0.09-0.12-0.13-0.2-0.39-0.17-0.57 0.04-0.26 0.29-0.35 0.57-0.34z"/>
		<path class="s9" d="m58.22 47.03q-0.04 0.68-0.12 1.41-0.3 2.39-0.61 4.79c-0.05 0.34-0.11 0.69-0.11 1.03 0.01 0.31 0.1 0.61 0.15 0.94-0.07-0.12-0.22-0.26-0.22-0.4q-0.01-0.76 0.06-1.52 0.14-1.16 0.31-2.33 0.14-1.08 0.29-2.17 0.12-0.86 0.25-1.75z"/>
		<path class="s9" d="m61.74 54.96q0.1 0 0.2 0.04c1.77 0.94 3.57 0.84 5.39 0.17q0.1-0.04 0.24-0.08c-0.05 0.06-0.11 0.14-0.2 0.17-1.58 0.62-3.17 0.74-4.79 0.15-0.29-0.11-0.55-0.28-0.84-0.45z"/>
		<path class="s9" d="m75.32 36.94c0.03 2.09-0.4 4.15-0.74 6.22q-0.08 0.36-0.21 0.71c0.11-0.72 0.26-1.44 0.37-2.16q0.25-1.55 0.45-3.11c0.06-0.54 0.07-1.09 0.13-1.66z"/>
		<path class="s9" d="m63.66 41.39q0.07-0.69 0.18-1.41c0.17-0.98 0.37-1.94 0.52-2.92 0.04-0.26-0.05-0.55-0.08-0.85 0.26 0.16 0.24 0.43 0.2 0.69q-0.16 1.06-0.35 2.11-0.22 1.18-0.47 2.38z"/>
		<path class="s9" d="m45.43 62.15c-0.04-0.09-0.1-0.22-0.1-0.35q-0.02-0.86-0.01-1.71c-0.49-0.16-0.59-0.1-0.59 0.4q-0.01 0.91-0.05 1.78-0.02-1.2-0.02-2.37 0.12 0.04 0.25 0.05c0.61-0.02 0.53 0.04 0.53 0.59q0.01 0.79-0.01 1.61z"/>
		<path class="s10" d="m88.16 40.38c0.04 0.07 0.11 0.17 0.11 0.26q0.01 3.02 0.01 6.04 0 0.07-0.03 0.18-0.02-1.57-0.03-3.18-0.03-1.62-0.06-3.3z"/>
		<path class="s10" d="m39.69 58.61q-0.8 0.03-1.65 0.05c-0.48 0.01-0.48 0-0.48 0.49q0 2.05 0.01 4.16-0.01 0.04-0.06 0-0.02-2.38-0.02-4.7 1.08-0.01 2.2 0z"/>
		<path class="s9" d="m80.46 36.25c-0.48-0.4-1.07-0.28-1.61-0.21-0.82 0.1-1.63 0.28-2.46 0.42 0.97-0.21 1.95-0.42 2.94-0.57 0.31-0.04 0.65 0.09 0.97 0.16 0.06 0.02 0.11 0.11 0.16 0.2z"/>
		<path class="s10" d="m43.04 62.24q-0.04-0.37-0.06-0.73-0.02-0.64-0.01-1.27c0-0.2-0.13-0.25-0.28-0.21-0.11 0.02-0.29 0.12-0.29 0.19q0.01 1.3 0.05 2.65-0.07-0.09-0.13-0.31 0-1.37 0-2.66 0.32 0 0.69 0.03 0.03 1.18 0.03 2.31z"/>
		<path class="s9" d="m63.92 35.91c-1.35-0.1-2.63 0.27-3.9 0.68q-0.19 0.06-0.42 0.13c0.38-0.15 0.78-0.33 1.2-0.46 0.89-0.27 1.79-0.47 2.73-0.44q0.18 0.01 0.39 0.09z"/>
		<path class="s11" d="m80.61 58.67q0 2.12-0.01 4.23c-0.01 0.22 0.06 0.33 0.29 0.32q0.1 0.01 0.22 0.1-0.05 0.03-0.19 0.01-0.19-0.01-0.31 0-0.07-0.03-0.12-0.12 0.04-0.2 0.04-0.33 0-2.11 0.02-4.22 0.04 0.01 0.06 0.01z"/>
		<path class="s9" d="m57.61 55.31c1.13 0.47 2.17 0.17 3.16-0.43q0.09-0.06 0.22-0.12c-0.29 0.2-0.57 0.45-0.91 0.6-0.69 0.3-1.42 0.31-2.15 0.16-0.11-0.02-0.21-0.12-0.32-0.21z"/>
		<path class="s10" d="m80.64 58.67q-0.05 0-0.09-0.02-0.03-0.03-0.02-0.04 0.33-0.01 0.7 0.02 0.03 2.38 0.02 4.71-0.01 0-0.05-0.01-0.03-2.18-0.01-4.36c0-0.44-0.31-0.27-0.55-0.3z"/>
		<path class="s12" d="m81.28 63.33q-0.03-2.32-0.02-4.69 0.04 0.03 0.05 0.12 0.01 2.27-0.03 4.57z"/>
		<path class="s13" d="m37.47 58.62q0.03 2.31 0.03 4.69c-0.02-0.02-0.06-0.06-0.06-0.11q0-2.27 0.03-4.58z"/>
		<path class="s7" d="m80.51 58.63q0.02-0.01 0.02 0.02 0 2.12 0 4.23 0 0.13-0.04 0.31-0.01-2.25 0.02-4.56z"/>
		<path class="s10" d="m72.27 48.37q0.04-1.17 0.1-2.39 0.21 1.15-0.06 2.37-0.04 0.03-0.05 0.02 0.01 0 0.01 0z"/>
		<path class="s9" d="m71.67 50.64q0.09-0.4 0.21-0.82 0.18-0.7 0.37-1.43 0.02-0.03 0.02-0.01 0.03 0.04 0.05 0.05-0.31 1.09-0.65 2.21z"/>
		<path class="s10" d="m88.16 37.26q0.04 0.3 0.05 0.64 0 1.14-0.03 2.32-0.02-1.44-0.02-2.96z"/>
		<path class="s9" d="m70.42 52.88q0.45-0.78 0.95-1.59-0.44 0.78-0.95 1.59z"/>
		<path class="s13" d="m42.29 59.92q0.04 1.28 0.03 2.62c-0.03 0-0.07-0.03-0.07-0.06q0-1.27 0.04-2.56z"/>
		<path class="s12" d="m44.63 59.92q0.04 1.15 0.03 2.36-0.01 0.05-0.04 0.05-0.03-1.2 0.01-2.41z"/>
		<path class="s13" d="m43.04 62.24q0-1.13-0.01-2.31c0.03 0.06 0.07 0.14 0.07 0.23q0.01 1-0.02 2.05c-0.02 0.04-0.05 0.02-0.05 0.02q0 0.01 0.01 0.01z"/>
		<path class="s9" d="m67.8 55.02q0.56-0.38 1.2-0.77-0.56 0.38-1.2 0.77z"/>
		<path class="s10" d="m23.28 60.19q0.08 0.05 0.11 0.09-0.82 0.05-1.68 0.1c0.08-0.04 0.18-0.11 0.29-0.12q0.62-0.05 1.28-0.07z"/>
		<path id="Layer copy" class="s0" d="m28.53 43.75c0.56 0.19 1.17-0.02 1.41-0.29q-0.13-0.01-0.27-0.03-0.16-0.04-0.3-0.13-0.14-0.1-0.25-0.24-0.16-0.22-0.08-0.49 0.01-0.07 0.03-0.13 0.1-0.3 0.32-0.53 0.14-0.14 0.29-0.26c0.22-0.15 0.46-0.24 0.74-0.2q0.28 0.03 0.48 0.23 0.12 0.14 0.15 0.32 0.06 0.24 0.02 0.48-0.03 0.31-0.16 0.59-0.09 0.22-0.21 0.43-0.26 0.4-0.65 0.68-0.29 0.21-0.63 0.29-0.39 0.1-0.78 0.03-0.23-0.04-0.43-0.14c-0.13-0.07-0.17-0.2-0.18-0.33q0-0.17 0.09-0.3 0.02-0.02 0.07-0.04 0.02 0 0.03 0 0 0 0 0 0.16 0.04 0.32 0.08-0.01-0.01-0.01-0.02zm1.89-1.35q0-0.02 0-0.04c0-0.13-0.11-0.25-0.23-0.24q-0.25 0.01-0.4 0.22-0.03 0.04-0.06 0.09-0.08 0.14-0.02 0.3 0.05 0.14 0.19 0.17 0.1 0.04 0.22 0.02c0.15-0.03 0.22-0.14 0.27-0.27q0.03-0.11 0.03-0.24 0 0 0-0.01z"/>
		<path class="s10" d="m88.23 47.09c0.04 0.09 0.1 0.2 0.1 0.32q0.02 0.61 0.02 1.26 0 0.04-0.02 0.02-0.03 0-0.04 0-0.01-0.15-0.01-0.38-0.02-0.46-0.05-0.83-0.01-0.18 0-0.39z"/>
		<path class="s8" d="m74.86 60.62q0.01 0 0.06 0 0.03 0.87 0 1.78-0.04 0.04-0.05 0.03 0-0.01-0.01-0.09 0-0.89 0-1.72z"/>
		<path class="s9" d="m76.23 36.48q-0.4 0.22-0.87 0.44 0.4-0.22 0.87-0.44z"/>
		<path class="s9" d="m45.33 63.33q0.01-0.24 0.08-0.5-0.01 0.23-0.08 0.5z"/>
		<path class="s9" d="m61.11 54.74c0.09-0.28 0.15-0.29 0.41-0.02q-0.18 0.02-0.41 0.02z"/>
		<path class="s0" d="m88.23 47.5q0.03 0.35 0.05 0.78-0.03-0.34-0.05-0.78z"/>
		<path class="s9" d="m69.56 53.79q0.1-0.13 0.27-0.28-0.1 0.13-0.27 0.28z"/>
		<path class="s10" d="m40.35 58.71q-0.16-0.02-0.37-0.09 0.16 0.02 0.37 0.09z"/>
		<path class="s9" d="m71.48 51.09q0.02-0.13 0.1-0.3-0.03 0.13-0.1 0.3z"/>
		<path class="s10" d="m88.35 48.7q0.08 0.14 0.17 0.32-0.08-0.05-0.17-0.19 0-0.1 0-0.13 0 0 0 0z"/>
		<path class="s9" d="m58.33 46.48q-0.03 0.18-0.1 0.35 0-0.14 0.06-0.33 0.03-0.02 0.04-0.02 0 0 0 0z"/>
		<path class="s9" d="m70.27 53.11q0.02-0.1 0.11-0.22-0.03 0.1-0.11 0.22z"/>
		<path class="s9" d="m64.2 36.1q-0.11-0.05-0.25-0.16 0.11 0.05 0.25 0.16z"/>
		<path class="s10" d="m40.61 58.84q-0.1-0.02-0.23-0.1 0.1 0.02 0.23 0.1z"/>
		<path class="s9" d="m69.05 54.24q0.04-0.06 0.14-0.13-0.04 0.06-0.14 0.13z"/>
		<path class="s8" d="m80.63 63.34q0.1-0.02 0.27-0.02-0.1 0.02-0.27 0.02z"/>
		<path class="s9" d="m70.08 53.27q0.04-0.06 0.14-0.11-0.04 0.05-0.14 0.11z"/>
		<path class="s10" d="m43.04 62.25c-0.01-0.02 0.02 0 0.04 0q0.02 0.06 0.02 0.16-0.03-0.04-0.06-0.16z"/>
		<path class="s9" d="m74.87 62.44q0.01-0.02 0.04-0.01 0.02 0.04 0.03 0.11-0.04-0.02-0.07-0.1z"/>
		<path class="s9" d="m69.23 54.1q0.02-0.05 0.11-0.09-0.03 0.05-0.11 0.09z"/>
		<path class="s9" d="m61.54 54.76q0.03 0 0.08 0.06-0.04-0.01-0.08-0.06z"/>
		<path class="s9" d="m69.93 53.43q0-0.03 0.05-0.09 0 0.03-0.05 0.09z"/>
		<path class="s9" d="m61.64 54.87q0.02 0.01 0.05 0.06-0.02-0.01-0.05-0.06z"/>
		<path class="s0" d="m88.33 48.69q0.02 0.05 0.02 0.12-0.04-0.01-0.07-0.1 0.02-0.03 0.05-0.02z"/>
		<path class="s10" d="m21.66 56.39q-0.01 0.02-0.09 0.06 0.02-0.02 0.09-0.06z"/>
		<path class="s10" d="m88.53 49.05q0.01-0.01 0.02 0 0 0.01-0.01 0.03-0.01 0-0.01-0.03z"/>
		<path class="s9" d="m64.26 36.17q-0.02 0.01-0.05-0.03 0.02-0.01 0.05 0.03z"/>
		<path class="s9" d="m70.01 53.32q-0.01-0.02 0.04-0.05 0 0.02-0.04 0.05z"/>
		<path class="s9" d="m69.37 53.97q-0.01-0.02 0.03-0.05 0.01 0.02-0.03 0.05z"/>
		<path class="s0" d="m58.32 46.47q0.01 0.02-0.03 0.01-0.02-0.02-0.02-0.06 0.02 0 0.05 0.05z"/>
		<path class="s9" d="m67.66 55.08q0-0.02 0.05-0.05 0 0.02-0.05 0.05z"/>
		<path class="s9" d="m57.55 55.23q0.02-0.01 0.05 0.04-0.02 0.01-0.05-0.04z"/>
		<path class="s0" d="m72.32 48.42q-0.02 0-0.05-0.04 0-0.01 0.04-0.01 0.02 0.01 0.01 0.05z"/>
		<path class="s9" d="m14.9 45.33q0 0.07-0.05 0.13c-0.78 0.71-1.14 1.65-1.42 2.62-0.25 0.83-0.42 1.68-0.34 2.55q0.05 0.4 0.14 0.82c-0.09-0.3-0.26-0.62-0.26-0.95 0.02-1.73 0.44-3.36 1.48-4.78 0.11-0.15 0.28-0.26 0.45-0.39z"/>
		<path class="s9" d="m17.01 49.01c0.07-0.4 0.13-0.83 0.25-1.24 0.19-0.68 0.09-1.32-0.11-1.99 0.3 0.38 0.35 0.86 0.29 1.33-0.1 0.63-0.27 1.25-0.43 1.9z"/>
		<path class="s9" d="m13.83 52.22q0.54 0.21 1.17 0.05-0.56 0.33-1.17-0.05z"/>
		<path class="s9" d="m16.72 45.23q-0.28-0.07-0.62-0.19c0.23-0.12 0.42 0.03 0.62 0.19z"/>
		<path class="s9" d="m15.75 45.03q-0.3 0.11-0.63 0.19 0.26-0.12 0.61-0.23 0.03 0 0.02-0.01 0 0.02 0 0.05z"/>
		<path class="s9" d="m16.62 50.12q0.05-0.19 0.14-0.44-0.05 0.2-0.14 0.44z"/>
		<path class="s9" d="m16.91 45.37q-0.07-0.02-0.17-0.1 0.07 0.02 0.17 0.1z"/>
		<path class="s9" d="m16.8 49.64q0-0.08 0.05-0.21 0 0.09-0.05 0.21z"/>
		<path class="s9" d="m15.75 44.99q0.07-0.03 0.13-0.06 0.01 0.02 0.02 0.04-0.05 0-0.13 0.01-0.02 0.01-0.02 0.01z"/>
		<path class="s9" d="m16.93 49.25q0-0.08 0.05-0.21 0 0.09-0.05 0.21z"/>
		<path class="s9" d="m13.34 51.72q0.06 0.04 0.13 0.15-0.06-0.04-0.13-0.15z"/>
		<path class="s9" d="m13.68 52.1q0.06 0.01 0.13 0.07-0.05 0-0.13-0.07z"/>
		<path class="s9" d="m15.06 45.23q-0.03 0.04-0.12 0.09 0.03-0.04 0.12-0.09z"/>
		<path class="s9" d="m13.24 51.51q0.02 0.02 0.05 0.08-0.02-0.01-0.05-0.08z"/>
		<path class="s9" d="m13.47 51.91q0.03 0.02 0.08 0.08-0.03-0.01-0.08-0.08z"/>
		<path class="s9" d="m17.08 45.62q-0.03 0-0.07-0.04 0.03 0 0.07 0.04z"/>
		<path class="s9" d="m13.56 52.02q0.03 0 0.1 0.05-0.03 0-0.1-0.05z"/>
		<path class="s9" d="m16.88 49.4q-0.01-0.03 0.02-0.1 0 0.03-0.02 0.1z"/>
		<path class="s9" d="m13.3 51.64q0.02-0.01 0.04 0.04-0.03 0.01-0.04-0.04z"/>
		<path class="s9" d="m15.05 52.26q-0.01-0.02 0.05-0.04 0 0.02-0.05 0.04z"/>
		<path class="s9" d="m17 45.54q-0.03 0.02-0.02-0.03 0.02 0 0.02 0.03z"/>
		<path class="s9" d="m78 52.43c0.64 0.31 1.3 0.22 1.99 0.05-0.65 0.34-1.31 0.37-1.99-0.05z"/>
		<path class="s9" d="m80.3 52.35q0.04-0.06 0.16-0.13-0.05 0.06-0.16 0.13z"/>
		<path class="s9" d="m80.6 52.12q0.03-0.05 0.12-0.09-0.03 0.04-0.12 0.09z"/>
		<path class="s9" d="m80.04 52.48q0.02-0.03 0.09-0.06-0.02 0.02-0.09 0.06z"/>
		<path class="s9" d="m80.53 52.2q-0.01-0.02 0.04-0.05 0.01 0.02-0.04 0.05z"/>
		<path class="s11" d="m83.39 61.39q0.67 0 1.3 0 0 0.03 0 0.05-0.74 0-1.48 0 0-0.02 0-0.04 0.07 0 0.18-0.01z"/>
		<path class="s11" d="m59.24 61.39q0.41 0 0.78 0 0 0.02 0 0.05-0.77 0-1.54 0 0-0.03 0-0.05 0.36 0 0.76 0z"/>
		<path class="s9" d="m74.85 60.65q0.01 0.8 0.01 1.68-0.01-0.8-0.01-1.68z"/>
		<path class="s0" d="m64.78 45.38q0.01 0 0.01 0.01 0 0-0.01-0.01 0 0 0 0z"/>
		<path class="s0" d="m67.45 46.61q-0.01 0.01-0.01 0.02 0-0.01 0-0.01 0.01 0 0.01-0.01z"/>
		<path class="s0" d="m80.08 45.38q0.01 0 0.01 0.01 0 0-0.01-0.01 0-0.01 0 0z"/>
		<path class="s0" d="m51.87 48.26q0-0.02 0.03-0.05 0 0.03-0.03 0.05z"/>
	</g>
</svg>